<?xml version="1.0" encoding="UTF-8" standalone="no"?>
<!-- Created with Inkscape (http://www.inkscape.org/) -->

<svg
   width="210mm"
   height="210mm"
   viewBox="0 0 210 210"
   version="1.1"
   id="svg2163"
   inkscape:version="1.1.1 (3bf5ae0d25, 2021-09-20)"
   sodipodi:docname="warp.svg"
   xmlns:inkscape="http://www.inkscape.org/namespaces/inkscape"
   xmlns:sodipodi="http://sodipodi.sourceforge.net/DTD/sodipodi-0.dtd"
   xmlns:xlink="http://www.w3.org/1999/xlink"
   xmlns="http://www.w3.org/2000/svg"
   xmlns:svg="http://www.w3.org/2000/svg">
  <sodipodi:namedview
     id="namedview2165"
     pagecolor="#ffffff"
     bordercolor="#666666"
     borderopacity="1.0"
     inkscape:pageshadow="2"
     inkscape:pageopacity="0.0"
     inkscape:pagecheckerboard="0"
     inkscape:document-units="mm"
     showgrid="false"
     inkscape:zoom="0.51906082"
     inkscape:cx="43.347521"
     inkscape:cy="482.60241"
     inkscape:window-width="1920"
     inkscape:window-height="1009"
     inkscape:window-x="-8"
     inkscape:window-y="-8"
     inkscape:window-maximized="1"
     inkscape:current-layer="layer1" />
  <defs
     id="defs2160" />
  <g
     inkscape:label="Calque 1"
     inkscape:groupmode="layer"
     id="layer1">
    <g
       id="g3056"
       transform="matrix(1,0,0,1.1138702,-4.5876127,-16.643385)">
      <path
         style="fill:none;stroke:#000000;stroke-width:0.200925px;stroke-linecap:butt;stroke-linejoin:miter;stroke-opacity:1"
         d="M 31.964364,25.896976 29.758904,173.44225"
         id="path2309" />
      <path
         style="fill:none;stroke:#000000;stroke-width:0.200925px;stroke-linecap:butt;stroke-linejoin:miter;stroke-opacity:1"
         d="m 31.964364,25.896976 2.3663,147.363334"
         id="path2311" />
      <ellipse
         style="fill:#000000;fill-opacity:1;stroke:#000000;stroke-width:0.200035;stroke-linecap:round;stroke-linejoin:bevel;stroke-miterlimit:4;stroke-dasharray:none;stroke-opacity:1"
         id="path2386"
         cx="29.758223"
         cy="174.82021"
         rx="2.287689"
         ry="3.8740156"
         transform="matrix(0.99920901,-0.03976616,0.0132346,0.99991242,0,0)" />
      <path
         style="fill:#000000;fill-opacity:1;stroke:#000000;stroke-width:0.1;stroke-linecap:round;stroke-linejoin:bevel;stroke-miterlimit:4;stroke-dasharray:none;stroke-opacity:1"
         d="m 29.929557,170.46108 c 0.02152,-0.8436 0.481668,-31.44403 1.02256,-68.00094 0.54089,-36.556922 0.991223,-66.873035 1.000739,-67.369146 0.0095,-0.496108 0.366241,20.945845 0.792725,47.648784 0.426483,26.702942 0.921996,57.670932 1.101139,68.817752 l 0.325715,20.26695 -0.235782,-0.58089 c -0.12968,-0.31949 -0.455485,-0.79324 -0.72401,-1.05278 -0.405954,-0.39237 -0.610792,-0.46701 -1.215554,-0.44295 -0.60476,0.0241 -0.807407,0.11493 -1.202553,0.53918 -0.261376,0.28063 -0.571725,0.7797 -0.689665,1.10904 l -0.214435,0.59882 z"
         id="path2727" />
    </g>
    <use
       id="use8150"
       inkscape:spray-origin="#g3056"
       xlink:href="#g3056"
       x="0"
       y="0"
       width="100%"
       height="100%"
       transform="matrix(1.0005613,0,0,0.96529324,75.386325,-1.6111786)" />
    <use
       id="use8152"
       inkscape:spray-origin="#g3056"
       xlink:href="#g3056"
       x="0"
       y="0"
       width="100%"
       height="100%"
       transform="matrix(0.56279053,0,0,1.0638734,22.901061,-0.99521133)" />
    <use
       id="use8154"
       inkscape:spray-origin="#g3056"
       xlink:href="#g3056"
       x="0"
       y="0"
       width="100%"
       height="100%"
       transform="matrix(1.0669917,0,0,1,19.648576,1.3573261)" />
    <use
       id="use8156"
       inkscape:spray-origin="#g3056"
       xlink:href="#g3056"
       x="0"
       y="0"
       width="100%"
       height="100%"
       transform="matrix(0.81983496,0,0,1,59.116625,-2.0288759)" />
    <use
       id="use8158"
       inkscape:spray-origin="#g3056"
       xlink:href="#g3056"
       x="0"
       y="0"
       width="100%"
       height="100%"
       transform="matrix(0.8810897,0,0,1.0995925,46.829214,0.47888557)" />
    <use
       id="use8160"
       inkscape:spray-origin="#g3056"
       xlink:href="#g3056"
       x="0"
       y="0"
       width="100%"
       height="100%"
       transform="matrix(0.6189345,0,0,0.94869928,42.989161,1.8673862)" />
    <use
       id="use8162"
       inkscape:spray-origin="#g3056"
       xlink:href="#g3056"
       x="0"
       y="0"
       width="100%"
       height="100%"
       transform="matrix(0.99900029,0,0,1.0633783,64.266811,-4.124245)" />
    <use
       id="use8164"
       inkscape:spray-origin="#g3056"
       xlink:href="#g3056"
       x="0"
       y="0"
       width="100%"
       height="100%"
       transform="matrix(0.75224111,0,0,1.0648873,94.86937,-2.4903814)" />
    <use
       id="use8166"
       inkscape:spray-origin="#g3056"
       xlink:href="#g3056"
       x="0"
       y="0"
       width="100%"
       height="100%"
       transform="matrix(1.4258995,0,0,1.1162035,88.849949,0.39164877)" />
    <use
       id="use8166-4"
       inkscape:spray-origin="#g3056"
       xlink:href="#g3056"
       x="0"
       y="0"
       width="100%"
       height="100%"
       transform="matrix(0.81983496,0,0,1,117.25304,2.2400156)" />
    <use
       id="use8166-4-7"
       inkscape:spray-origin="#g3056"
       xlink:href="#g3056"
       x="0"
       y="0"
       width="100%"
       height="100%"
       transform="matrix(1.2726313,0,0,1,119.90007,2.7497497)" />
    <use
       id="use8166-4-7-7"
       inkscape:spray-origin="#g3056"
       xlink:href="#g3056"
       x="0"
       y="0"
       width="100%"
       height="100%"
       transform="matrix(1.2726313,0,0,1,147.03013,-2.3873824)" />
    <use
       id="use8166-4-7-7-9"
       inkscape:spray-origin="#g3056"
       xlink:href="#g3056"
       x="0"
       y="0"
       width="100%"
       height="100%"
       transform="matrix(1.2755287,0,0,0.91061588,160.20367,2.0838094)" />
    <use
       id="use8166-4-7-5"
       inkscape:spray-origin="#g3056"
       xlink:href="#g3056"
       x="0"
       y="0"
       width="100%"
       height="100%"
       transform="matrix(1.2719969,0,0,1.0801409,-20.655189,2.4693739)" />
    <use
       id="use8166-4-0"
       inkscape:spray-origin="#g3056"
       xlink:href="#g3056"
       x="0"
       y="0"
       width="100%"
       height="100%"
       transform="matrix(0.99886001,0,0,1.0724324,141.80424,1.3534704)" />
  </g>
</svg>
